<svg width="18" height="19" viewBox="0 0 18 19" fill="none" xmlns="http://www.w3.org/2000/svg">
<path d="M8.61628 0.0315819C8.70063 -0.0105273 8.79949 -0.0105273 8.88385 0.0315819L17.213 4.19564C17.4341 4.3062 17.4341 4.6222 17.213 4.73275L16.8555 4.91049L8.88385 8.89682C8.82062 8.92838 8.74913 8.93699 8.68171 8.92123L8.61628 8.89682L0.287174 4.73275C0.0660593 4.6222 0.0660593 4.3062 0.287174 4.19564L8.61628 0.0315819ZM3.10358 4.4642L8.74909 7.28646L14.3956 4.46322L8.75006 1.64096L3.10358 4.4642Z" fill="white"/>
<path d="M16.415 13.2933C16.7854 13.1083 17.2357 13.2588 17.4209 13.6292C17.6058 13.9996 17.4553 14.4499 17.0849 14.635L9.21971 18.5677C8.9241 18.7155 8.57586 18.7155 8.28025 18.5677L0.415018 14.635C0.0446648 14.4499 -0.10586 13.9996 0.079081 13.6292C0.264258 13.2588 0.71453 13.1083 1.08494 13.2933L8.74998 17.1253L16.415 13.2933Z" fill="white"/>
<path d="M16.415 8.29325C16.7854 8.10831 17.2357 8.25884 17.4209 8.62919C17.6058 8.9996 17.4553 9.44987 17.0849 9.63505L9.21971 13.5677C8.9241 13.7155 8.57586 13.7155 8.28025 13.5677L0.415018 9.63505C0.0446648 9.44987 -0.10586 8.9996 0.079081 8.62919C0.264258 8.25884 0.71453 8.10831 1.08494 8.29325L8.74998 12.1253L16.415 8.29325Z" fill="white"/>
</svg>
