<svg width="21" height="21" viewBox="0 0 21 21" fill="none" xmlns="http://www.w3.org/2000/svg">
<path d="M5.28809 8.07691V6.82691H2.78809V8.07691H4.03809H5.28809ZM11.3073 18.2115C11.9977 18.2115 12.5573 17.6519 12.5573 16.9615C12.5573 16.2712 11.9977 15.7115 11.3073 15.7115V16.9615V18.2115ZM15.7112 12.9231V14.1731H18.2112V12.9231H16.9612H15.7112ZM9.69193 2.78845C9.00158 2.78845 8.44193 3.3481 8.44193 4.03845C8.44193 4.72881 9.00158 5.28845 9.69193 5.28845V4.03845V2.78845ZM4.03809 8.07691H2.78809V15.9615H4.03809H5.28809V8.07691H4.03809ZM5.03809 16.9615V18.2115H11.3073V16.9615V15.7115H5.03809V16.9615ZM16.9612 12.9231H18.2112V5.03845H16.9612H15.7112V12.9231H16.9612ZM15.9612 4.03845V2.78845H9.69193V4.03845V5.28845H15.9612V4.03845ZM16.9612 5.03845H18.2112C18.2112 3.79581 17.2038 2.78845 15.9612 2.78845V4.03845V5.28845C15.8231 5.28845 15.7112 5.17652 15.7112 5.03845H16.9612ZM4.03809 15.9615H2.78809C2.78809 17.2042 3.79544 18.2115 5.03809 18.2115V16.9615V15.7115C5.17616 15.7115 5.28809 15.8235 5.28809 15.9615H4.03809Z" fill="white"/>
<mask id="path-2-inside-1_68_555" fill="white">
<path d="M8.07692 4.03846C8.07692 6.26884 6.26884 8.07692 4.03846 8.07692C1.80808 8.07692 0 6.26884 0 4.03846C0 1.80808 1.80808 0 4.03846 0C6.26884 0 8.07692 1.80808 8.07692 4.03846ZM1.80977 4.03846C1.80977 5.26933 2.80759 6.26715 4.03846 6.26715C5.26933 6.26715 6.26715 5.26933 6.26715 4.03846C6.26715 2.80759 5.26933 1.80977 4.03846 1.80977C2.80759 1.80977 1.80977 2.80759 1.80977 4.03846Z"/>
</mask>
<path d="M8.07692 4.03846C8.07692 6.26884 6.26884 8.07692 4.03846 8.07692C1.80808 8.07692 0 6.26884 0 4.03846C0 1.80808 1.80808 0 4.03846 0C6.26884 0 8.07692 1.80808 8.07692 4.03846ZM1.80977 4.03846C1.80977 5.26933 2.80759 6.26715 4.03846 6.26715C5.26933 6.26715 6.26715 5.26933 6.26715 4.03846C6.26715 2.80759 5.26933 1.80977 4.03846 1.80977C2.80759 1.80977 1.80977 2.80759 1.80977 4.03846Z" stroke="white" stroke-width="2" mask="url(#path-2-inside-1_68_555)"/>
<mask id="path-3-inside-2_68_555" fill="white">
<path d="M21.0003 16.9615C21.0003 19.1919 19.1922 21 16.9618 21C14.7314 21 12.9233 19.1919 12.9233 16.9615C12.9233 14.7311 14.7314 12.9231 16.9618 12.9231C19.1922 12.9231 21.0003 14.7311 21.0003 16.9615ZM14.7331 16.9615C14.7331 18.1924 15.7309 19.1902 16.9618 19.1902C18.1927 19.1902 19.1905 18.1924 19.1905 16.9615C19.1905 15.7307 18.1927 14.7328 16.9618 14.7328C15.7309 14.7328 14.7331 15.7307 14.7331 16.9615Z"/>
</mask>
<path d="M21.0003 16.9615C21.0003 19.1919 19.1922 21 16.9618 21C14.7314 21 12.9233 19.1919 12.9233 16.9615C12.9233 14.7311 14.7314 12.9231 16.9618 12.9231C19.1922 12.9231 21.0003 14.7311 21.0003 16.9615ZM14.7331 16.9615C14.7331 18.1924 15.7309 19.1902 16.9618 19.1902C18.1927 19.1902 19.1905 18.1924 19.1905 16.9615C19.1905 15.7307 18.1927 14.7328 16.9618 14.7328C15.7309 14.7328 14.7331 15.7307 14.7331 16.9615Z" stroke="white" stroke-width="2" mask="url(#path-3-inside-2_68_555)"/>
</svg>
