<svg width="10" height="26" viewBox="0 0 10 26" fill="none" xmlns="http://www.w3.org/2000/svg">
<path d="M6 16.1013C8.28234 16.5645 10.0008 18.5817 10.001 21.0007C10.001 23.7623 7.76156 26.0017 5 26.0017C2.23855 26.0016 0 23.7622 0 21.0007C0.000177063 18.5819 1.7179 16.5647 4 16.1013V17.8923C2.68597 18.3148 1.73454 19.5463 1.73438 21.0007C1.73438 22.8042 3.19656 24.2662 5 24.2664C6.80356 24.2664 8.26562 22.8043 8.26562 21.0007C8.26546 19.5461 7.31442 18.3136 6 17.8914V16.1013Z" fill="#D9D9D9"/>
<path d="M5.00024 0C6.6571 0 8.00024 1.34315 8.00024 3V17.001H6.00024V3C6.00016 2.44776 5.5525 2 5.00024 2C4.44805 2.00007 4.00033 2.44781 4.00024 3V17.001H2.00024V3C2.00024 1.3432 3.34346 8.19462e-05 5.00024 0Z" fill="#D9D9D9"/>
</svg>
