<svg width="16" height="20" viewBox="0 0 16 20" fill="none" xmlns="http://www.w3.org/2000/svg">
<path d="M8 0C12.4183 0 16 3.58172 16 8C16 11.9978 9.44987 18.5859 8.20312 19.8037C8.08921 19.9145 7.91079 19.9145 7.79688 19.8037C6.55013 18.5859 0 11.9978 0 8C0 3.58172 3.58172 0 8 0ZM8 2C4.68629 2 2 4.68629 2 8C2 10.9504 6.75673 15.7817 7.7998 16.8057C7.91349 16.917 8.08651 16.917 8.2002 16.8057C9.24327 15.7817 14 10.9504 14 8C14 4.68629 11.3137 2 8 2ZM8 5C9.65685 5 11 6.34315 11 8C11 9.65685 9.65685 11 8 11C6.34315 11 5 9.65685 5 8C5 6.34315 6.34315 5 8 5ZM8 6.75195C7.31065 6.75195 6.75195 7.31065 6.75195 8C6.75195 8.68935 7.31065 9.24805 8 9.24805C8.68935 9.24805 9.24805 8.68935 9.24805 8C9.24805 7.31065 8.68935 6.75195 8 6.75195Z" fill="white"/>
</svg>
