<svg width="54" height="67" viewBox="0 0 54 67" fill="none" xmlns="http://www.w3.org/2000/svg">
<path d="M10.639 15.9585L18.3227 28.9618L11.8211 36.0544L0 37.8276L10.639 15.9585Z" fill="url(#paint0_radial_68_533)"/>
<path d="M0 41.3739L11.8211 39.6008L20.0959 52.013L35.1762 50.9587L42.2688 42.6839L53.7861 44.3292L44.9203 66.7894H17.1406L0 41.3739Z" fill="url(#paint1_radial_68_533)"/>
<path d="M13.5943 14.1854L39.0097 0L53.7861 40.7829L43.1471 39.0097L39.0097 27.7797L25.4154 20.687L20.687 26.0065L13.5943 14.1854Z" fill="url(#paint2_radial_68_533)"/>
<path d="M23.7523 46.7408C24.6417 48.1369 24.8957 42.6593 24.8957 42.6593C24.8957 42.6593 28.8939 45.2772 29.7339 46.7408C29.9439 47.1067 33.878 43.9796 34.3745 40.6851C34.785 37.9618 32.4844 33.9061 32.4844 33.9061C32.4844 33.9061 30.7142 34.7979 29.7544 34.7808C28.9967 34.7674 29.1468 33.4067 28.6838 32.8128C27.9401 31.8587 26.8141 30.8447 26.8141 30.8447C26.8141 30.8447 26.0286 32.3947 25.344 33.2501C23.244 35.8742 20.4361 37.021 20.7238 40.4664C21.0253 44.0759 22.609 44.946 23.7523 46.7408Z" fill="#ED782F"/>
<path fill-rule="evenodd" clip-rule="evenodd" d="M24.8954 50.1647C27.9814 51.6891 25.6576 43.6857 25.6576 43.6857C25.6576 43.6857 30.231 47.6139 31.7555 50.1647C32.1366 50.8024 39.2759 45.3523 40.177 39.6104C40.9219 34.8641 36.7469 27.7958 36.7469 27.7958C36.7469 27.7958 33.5345 29.3499 31.7927 29.3203C30.4176 29.2968 30.6901 26.9254 29.8499 25.8902C28.5002 24.2274 26.4568 22.4601 26.4568 22.4601C26.4568 22.4601 25.0312 25.1616 23.789 26.6524C19.9781 31.2258 14.8824 33.2246 15.4046 39.2293C15.9516 45.5201 21.8093 48.6402 24.8954 50.1647ZM24.8957 42.6593C24.8957 42.6593 24.6417 48.1369 23.7523 46.7408C22.609 44.946 21.0253 44.0759 20.7238 40.4664C20.4361 37.021 23.244 35.8742 25.344 33.2501C26.0286 32.3947 26.8141 30.8447 26.8141 30.8447C26.8141 30.8447 27.9401 31.8587 28.6838 32.8128C29.1468 33.4067 28.9967 34.7674 29.7544 34.7808C30.7142 34.7979 32.4844 33.9061 32.4844 33.9061C32.4844 33.9061 34.785 37.9618 34.3745 40.6851C33.878 43.9796 29.9439 47.1067 29.7339 46.7408C28.8939 45.2772 24.8957 42.6593 24.8957 42.6593Z" fill="#EDD32F"/>
<defs>
<radialGradient id="paint0_radial_68_533" cx="0" cy="0" r="1" gradientUnits="userSpaceOnUse" gradientTransform="translate(26.8931 33.3947) rotate(90) scale(33.3947 26.8931)">
<stop offset="0.153846" stop-color="#9C3232"/>
<stop offset="1"/>
</radialGradient>
<radialGradient id="paint1_radial_68_533" cx="0" cy="0" r="1" gradientUnits="userSpaceOnUse" gradientTransform="translate(26.8931 33.3947) rotate(90) scale(33.3947 26.8931)">
<stop offset="0.153846" stop-color="#9C3232"/>
<stop offset="1"/>
</radialGradient>
<radialGradient id="paint2_radial_68_533" cx="0" cy="0" r="1" gradientUnits="userSpaceOnUse" gradientTransform="translate(26.8931 33.3947) rotate(90) scale(33.3947 26.8931)">
<stop offset="0.153846" stop-color="#9C3232"/>
<stop offset="1"/>
</radialGradient>
</defs>
</svg>
