<svg width="19" height="19" viewBox="0 0 19 19" fill="none" xmlns="http://www.w3.org/2000/svg">
<mask id="path-1-inside-1_68_841" fill="white">
<path d="M13.3714 6.68571C13.3714 10.3781 10.3781 13.3714 6.68571 13.3714C2.9933 13.3714 0 10.3781 0 6.68571C0 2.9933 2.9933 0 6.68571 0C10.3781 0 13.3714 2.9933 13.3714 6.68571ZM2.47096 6.68571C2.47096 9.01346 4.35797 10.9005 6.68571 10.9005C9.01346 10.9005 10.9005 9.01346 10.9005 6.68571C10.9005 4.35797 9.01346 2.47096 6.68571 2.47096C4.35797 2.47096 2.47096 4.35797 2.47096 6.68571Z"/>
</mask>
<path d="M13.3714 6.68571C13.3714 10.3781 10.3781 13.3714 6.68571 13.3714C2.9933 13.3714 0 10.3781 0 6.68571C0 2.9933 2.9933 0 6.68571 0C10.3781 0 13.3714 2.9933 13.3714 6.68571ZM2.47096 6.68571C2.47096 9.01346 4.35797 10.9005 6.68571 10.9005C9.01346 10.9005 10.9005 9.01346 10.9005 6.68571C10.9005 4.35797 9.01346 2.47096 6.68571 2.47096C4.35797 2.47096 2.47096 4.35797 2.47096 6.68571Z" fill="white" stroke="white" stroke-width="2" mask="url(#path-1-inside-1_68_841)"/>
<path d="M10.7998 10.8L17.9998 18" stroke="white" stroke-width="2" stroke-linecap="round"/>
</svg>
