<svg width="20" height="21" viewBox="0 0 20 21" fill="none" xmlns="http://www.w3.org/2000/svg">
<path d="M8.06958 1.06647C8.61676 -0.355442 10.629 -0.35555 11.176 1.06647C11.5556 2.0533 12.7469 2.44053 13.634 1.8653C14.9125 1.03634 16.5401 2.21938 16.1467 3.69147C15.874 4.71279 16.6106 5.72608 17.6663 5.78229C19.1878 5.8631 19.8096 7.77661 18.6262 8.73639C17.8051 9.4023 17.8052 10.6553 18.6262 11.3214C19.8097 12.2811 19.1879 14.1946 17.6663 14.2755C16.6105 14.3316 15.8738 15.3458 16.1467 16.3672C16.54 17.8393 14.9125 19.0214 13.634 18.1924C12.747 17.6175 11.5558 18.0049 11.176 18.9913C10.629 20.4134 8.61664 20.4134 8.06958 18.9913C7.68984 18.0047 6.49765 17.6173 5.6106 18.1924C4.33216 19.0213 2.70474 17.8392 3.0979 16.3672C3.37084 15.3458 2.63421 14.3315 1.57837 14.2755C0.0570198 14.1944 -0.56491 12.2811 0.618408 11.3214C1.43964 10.6554 1.43964 9.40236 0.618408 8.73639C-0.564511 7.77659 0.0571252 5.86331 1.57837 5.78229C2.63415 5.72621 3.37072 4.7129 3.0979 3.69147C2.7046 2.21951 4.33215 1.03678 5.6106 1.8653C6.49775 2.44053 7.68998 2.0533 8.06958 1.06647ZM9.62231 6.02936C7.41329 6.02949 5.62231 7.8203 5.62231 10.0294C5.62241 12.2383 7.41335 14.0292 9.62231 14.0294C11.8314 14.0294 13.6222 12.2384 13.6223 10.0294C13.6223 7.82022 11.8315 6.02936 9.62231 6.02936Z" fill="white"/>
</svg>
