<svg width="16" height="18" viewBox="0 0 16 18" fill="none" xmlns="http://www.w3.org/2000/svg">
<path d="M2 8.79109C2 8.2388 1.55228 7.79109 1 7.79109C0.447715 7.79109 0 8.2388 0 8.79109H1H2ZM1 16.1985H0C0 16.7508 0.447715 17.1985 1 17.1985L1 16.1985ZM15 16.1985V17.1985C15.5523 17.1985 16 16.7508 16 16.1985H15ZM16 8.79109C16 8.2388 15.5523 7.79109 15 7.79109C14.4477 7.79109 14 8.2388 14 8.79109H15H16ZM7.04046 11.1059C7.04046 11.6582 7.48818 12.1059 8.04046 12.1059C8.59275 12.1059 9.04046 11.6582 9.04046 11.1059H8.04046H7.04046ZM8.04046 1.19849L8.59165 0.364112L8.04046 2.14577e-06L7.48928 0.364112L8.04046 1.19849ZM2.58347 3.60485C2.12265 3.90926 1.99586 4.52961 2.30027 4.99042C2.60468 5.45124 3.22502 5.57803 3.68584 5.27362L3.13465 4.43923L2.58347 3.60485ZM12.3951 5.27362C12.8559 5.57803 13.4762 5.45124 13.7807 4.99042C14.0851 4.52961 13.9583 3.90927 13.4975 3.60485L12.9463 4.43923L12.3951 5.27362ZM1 8.79109H0V16.1985H1H2V8.79109H1ZM1 16.1985V17.1985H15V16.1985V15.1985H1V16.1985ZM15 16.1985H16V8.79109H15H14V16.1985H15ZM8.04046 11.1059H9.04046V1.19849H8.04046H7.04046V11.1059H8.04046ZM8.04046 1.19849L7.48928 0.364112L2.58347 3.60485L3.13465 4.43923L3.68584 5.27362L8.59165 2.03288L8.04046 1.19849ZM8.04046 1.19849L7.48928 2.03288L12.3951 5.27362L12.9463 4.43923L13.4975 3.60485L8.59165 0.364112L8.04046 1.19849Z" fill="#9E9A9A"/>
</svg>
