<svg width="22" height="19" viewBox="0 0 22 19" fill="none" xmlns="http://www.w3.org/2000/svg">
<path fill-rule="evenodd" clip-rule="evenodd" d="M9.5685 0.742328C10.1508 -0.252583 11.5909 -0.246168 12.1642 0.754047L21.3351 16.758C21.9081 17.7579 21.1859 19.004 20.0333 19.004H1.5021C0.34395 19.0039 -0.377132 17.747 0.207174 16.7472L9.5685 0.742328ZM10.4308 1.24721C10.6249 0.915438 11.1059 0.917652 11.297 1.25112L20.4669 17.255C20.6579 17.5884 20.4175 18.004 20.0333 18.004H1.5021C1.11625 18.0039 0.876033 17.5853 1.07046 17.2521L10.4308 1.24721Z" fill="white"/>
<path d="M11.759 15.254C11.759 15.8063 11.3113 16.254 10.759 16.254C10.2067 16.254 9.75903 15.8063 9.75903 15.254C9.75903 14.7018 10.2067 14.254 10.759 14.254C11.3113 14.254 11.759 14.7018 11.759 15.254Z" fill="white"/>
<path d="M10.009 11.754V6.25404C10.009 5.83983 10.3448 5.50404 10.759 5.50404C11.1732 5.50404 11.509 5.83983 11.509 6.25404V11.754C11.509 12.1683 11.1732 12.504 10.759 12.504C10.3448 12.504 10.009 12.1683 10.009 11.754Z" fill="white"/>
</svg>
